<?xml version="1.0" encoding="utf-8"?>
<!-- Generator: Adobe Illustrator 25.4.1, SVG Export Plug-In . SVG Version: 6.00 Build 0)  -->
<svg version="1.1" id="b84df9bf-816f-4b35-88fb-5908cc7fdce3"
	 xmlns="http://www.w3.org/2000/svg" xmlns:xlink="http://www.w3.org/1999/xlink" x="0px" y="0px" viewBox="0 0 606 564"
	 style="enable-background:new 0 0 606 564;" xml:space="preserve">
<style type="text/css">
	.st0{fill:#7431F4;}
	.st1{fill:#FFFFFF;}
	.st2{clip-path:url(#SVGID_00000073709033113683596960000002387877853993960084_);}
	.st3{clip-path:url(#SVGID_00000142870190600501784190000016883579005270786978_);}
	.st4{clip-path:url(#SVGID_00000180343450632423719940000016231299364438241689_);}
	.st5{clip-path:url(#SVGID_00000105411369774754840010000011379266709802028728_);}
</style>
<g>
	<path d="M42.5,99.8l-0.9-1.2C55.9,88.6,73,77.8,91.2,67.4c14.7-8.5,29.1-16.3,42.7-23l0.7,1.3c-13.6,6.7-27.9,14.4-42.6,22.9
		C73.8,79.1,56.7,89.9,42.5,99.8z"/>
</g>
<g>
	<polygon points="411.5,409.9 324.8,243 99.4,267.1 99.2,265.6 325.7,241.3 412.9,409.2 	"/>
</g>
<g>
	<polygon points="289.5,358.1 288.1,357.7 324.6,241.8 324.7,241.7 529.4,2.3 530.6,3.3 325.9,242.5 	"/>
</g>
<g>
	<polygon points="468.7,260.1 324.7,242.8 324.6,242.4 228.6,13.3 230,12.7 325.8,241.5 468.9,258.6 	"/>
</g>
<g>
	<polygon points="325.4,242.9 325.1,242.9 182.4,221.7 182.7,220.2 325.1,241.4 553.6,93.1 554.5,94.4 	"/>
</g>
<g>
	<circle class="st0" cx="488.8" cy="124.4" r="42.6"/>
</g>
<g>
	<path d="M604.4,562.4h-587v-1.5h240.9l-0.4-1c6.4-2.2,12.7-7.1,19.1-15.1c1.4-1.7,2.7-3.5,4-5.2c5.2-6.7,10.5-13.7,17.9-18
		c9.7-5.7,21.3-6,32.5-6.3c7.9-0.2,16.1-0.4,23.6-2.6c20.2-5.7,33.9-24.2,45.2-41.1c3.6-5.3,7.1-10.8,10.6-16.1
		c15.8-24.3,32.2-49.4,52.8-70.3c28.7-29.3,62.3-45.5,94.5-45.7c26-0.1,39.8,10.6,45.7,17l0.2,0.2v0.3L604.4,562.4z M259.5,560.9
		h343.3l-0.2-203.7c-5.8-6.2-19.1-16.3-43.8-16.3c-0.2,0-0.4,0-0.6,0c-31.8,0.2-65,16.3-93.5,45.3C444.4,407,428,432,412.2,456.3
		c-3.5,5.3-7.1,10.8-10.6,16.2c-11.4,17.1-25.3,35.9-46,41.7c-7.7,2.2-16,2.4-24,2.6c-11.5,0.3-22.3,0.6-31.7,6.1
		c-7.2,4.2-12.4,11-17.5,17.6c-1.3,1.7-2.7,3.5-4.1,5.2C272,553.5,265.9,558.5,259.5,560.9z"/>
</g>
<g>
	<rect x="230.3" y="457.5" transform="matrix(0.9316 -0.3636 0.3636 0.9316 -168.0222 118.6353)" width="1.5" height="96.1"/>
</g>
<g>
	<rect x="135.8" y="486.3" transform="matrix(0.9798 -0.1999 0.1999 0.9798 -100.4656 37.7105)" width="1.5" height="60.1"/>
</g>
<g>
	<path d="M214.4,460.9l-1.5-0.1l2.9-38.9c1-14.3,1.3-29-7.9-38.5c-7-7.2-17.6-9.2-27.8-10.6c-13.3-1.8-26.7-3.2-40.1-4.1
		c-14.7-1-23.9,2.1-27.3,9.3c-3.6,7.6,1.3,17,7.9,21.4c7.2,4.8,16.4,5.7,24.5,6.5l0.7,0.1l0,0.7c0.1,15.5,13.4,27.3,27.9,37.8
		l-0.9,1.2c-14.5-10.6-28-22.5-28.5-38.3c-8.1-0.8-17.2-1.9-24.5-6.7c-7.3-4.8-12.5-14.9-8.5-23.3c3.7-7.8,13.4-11.2,28.8-10.1
		c13.4,0.9,26.9,2.3,40.2,4.1c10.5,1.5,21.4,3.5,28.7,11c9.6,9.9,9.4,25,8.3,39.6L214.4,460.9z"/>
</g>
<g>
	<path d="M191.8,372.9l-1.5-0.4c4.3-17.5,8.6-35,12.9-52.5c1.6-6.4,3.3-13.6,2.5-20.6c-0.9-7.5-5.2-13.7-10.9-15.9
		c-7.4-2.8-15.9,1.5-20.5,7.3c-4.8,6.1-6.9,13.9-8.8,22.1c-4.2,18.5-7.6,37.4-10.1,56.2l-1.5-0.2c2.5-18.8,6-37.8,10.2-56.3
		c1.9-8.3,4-16.3,9-22.7c6.8-8.6,16.3-10.1,22.2-7.8c6.2,2.3,10.9,9.1,11.9,17.1c0.9,7.3-0.9,14.6-2.5,21.1
		C200.3,337.9,196.1,355.4,191.8,372.9z"/>
</g>
<g>
	<path d="M117,371.6c-3.2-18.3-5.4-35.3-7-55.1c-0.7-8.5-1.1-16.8,1.8-24.3c3.9-10.2,12.5-14.5,18.9-14.2
		c6.6,0.4,13.1,5.3,16.5,12.7c3,6.6,3.5,14.2,4,20.9c0.6,9,1.4,19.1,2.1,28.8c0.8,9.6,1.5,19.6,2.1,28.5l-1.5,0.1
		c-0.6-8.9-1.4-18.9-2.1-28.5c-0.8-9.7-1.5-19.8-2.1-28.9c-0.4-6.6-0.9-14-3.8-20.3c-3.1-6.9-9.1-11.5-15.2-11.9
		c-8-0.4-14.8,6.3-17.4,13.2c-2.7,7.2-2.4,15.3-1.7,23.7c1.6,19.7,3.8,36.6,7,54.9L117,371.6z"/>
</g>
<g>
	<path d="M117.5,438.3c-2,0-4.2-0.4-6.2-1.4c-4.2-1.9-7.4-5.2-10.6-8.8c-5-5.7-11.1-13.4-14.4-22.6c-3.3-9.4-3-19,0.9-26.5
		c4.8-9.2,15.1-12.5,30.4-9.9l-0.3,1.5c-14.6-2.5-24.4,0.6-28.9,9.1c-3.7,7.1-4,16.3-0.8,25.3c3.2,9,9.2,16.5,14.1,22.1
		c3,3.4,6.1,6.6,10.1,8.4c4.3,1.9,9,1.6,12-0.9c2.3-2,3.6-5.2,4.1-10.1c0.6-6.1-1.1-15.4-3-21.6l1.4-0.5c1.9,6.1,3.7,15.6,3.1,22.2
		c-0.3,3.3-1.2,8.1-4.6,11.1C122.9,437.5,120.3,438.3,117.5,438.3z"/>
</g>
<g>
	<path d="M101.7,470.9c-3.1,0-6.4-0.9-9.4-2.7c-4.1-2.6-7.6-5.8-10.3-9.7c-3.9-5.1-7.2-10.8-9.7-16.7c-2.9-6.6-3.9-12-3.1-16.9
		c1.5-9.4,9.3-16.3,17.2-22.5l0.9,1.2c-7.7,6-15.3,12.6-16.6,21.5c-0.7,4.6,0.3,9.7,3,16c2.5,5.9,5.7,11.4,9.6,16.4
		c2.7,3.8,6,6.9,9.9,9.3c4.1,2.4,8.9,3.1,12.8,1.8c6.3-2,9.8-8.8,10.6-14.6c0.8-6.4-0.1-10.1-1.8-16.6l1.4-0.4
		c1.7,6.5,2.7,10.5,1.8,17.1c-0.8,6.3-4.7,13.7-11.6,15.9C104.9,470.7,103.3,470.9,101.7,470.9z"/>
</g>
<g>
	<path d="M131.1,488.5c-5.8,0-11.3-1.6-16.3-4.7c-5.3-3.4-10-7.5-14-12.4l1.2-0.9c3.9,4.8,8.5,8.8,13.6,12.1
		c5.2,3.3,11.2,4.8,17.3,4.4l0.1,1.5C132.4,488.5,131.8,488.5,131.1,488.5z"/>
</g>
<g>
	<circle class="st1" cx="536.4" cy="212.3" r="67.1"/>
	<path d="M536.4,280.1c-37.4,0-67.9-30.5-67.9-67.9s30.5-67.9,67.9-67.9s67.9,30.5,67.9,67.9S573.8,280.1,536.4,280.1z M536.4,145.9
		c-36.6,0-66.4,29.8-66.4,66.4s29.8,66.4,66.4,66.4s66.4-29.8,66.4-66.4S573,145.9,536.4,145.9z"/>
</g>
<g>
	<path d="M491.1,174.8c3,0.9,6.1,0.6,9.2,0.5c5.3-0.2,10.6,0.3,15.8,1.5c2,0.3,3.9,1.1,5.5,2.4c1.6,1.3,2.3,3.4,1.6,5.4
		c-0.9,2.1-3.6,3.8-2.5,5.8c0.4,0.6,0.9,1,1.5,1.3c2.8,1.6,5.3,3.7,7.2,6.4c1.9,2.7,2.4,6.1,1.4,9.2c-1.3,3.2-4.6,5.2-7.8,6.6
		c-3.9,1.7-8,3-12.2,3.8c-2.5,0.3-4.9,0.9-7.3,1.7c-2.3,1-4.4,2.9-4.9,5.3s1.2,5.4,3.8,5.5c1.4,0.1,2.8-0.7,4.2-0.9
		c4.2-0.6,7.2,3.8,11,5.6c2.6,1.2,5.6,1.3,8.3,2.4s5.2,3.7,4.5,6.4c-0.8,2.9-4.6,3.9-6.1,6.5c-1,1.6-1.1,3.7-2.5,4.8
		c-1,0.8-2.5,0.8-3.7,1.2c-3,0.9-4.9,3.7-5.9,6.6s-1.1,6-1.6,9.1c-0.6,3.8-10.7-3.1-12.5-4.6c-2.2-1.7-5.1-3.5-6.4-6s-0.8-5.7-2-8.3
		c-1-2.3-3.1-3.9-4.3-6.1c-0.6-1.2-1-2.5-1.6-3.8c-0.7-1.5-1.8-2.8-2.5-4.2c-0.8-1.5-0.9-3.2-0.1-4.7c2-2.9,7.3-1.2,9.5-4
		c1.2-1.4,1-3.6,1.8-5.3c0.6-1.2,1.8-2.4,1.6-3.7c-0.4-2-3.1-2.1-5.1-2.1c-2.2,0-4.4-0.5-6.5-1.5c-0.6-0.2-1.1-0.7-1.3-1.2
		c-0.1-0.7,0.1-1.3,0.3-1.9c0.5-2.1-1.3-4.1-3.3-5.1s-4.2-1.4-5.8-2.9c-1.9-1.9-2.9-4.6-2.5-7.3c0.4-2.7,1.2-5.2,2.4-7.6
		c2.2-5.3,4.7-10.4,7.6-15.4c0.9-1.4,3.2-6.1,5.1-5.8c0.7,0.1,1.7,2.1,2.3,2.6C488.6,173.8,489.8,174.4,491.1,174.8z"/>
</g>
<g>
	<path d="M599.2,189.3c-1-3.4-2.7-6.5-4.4-9.9c-1.8-3.6-3.8-7-6.1-10.2c-1.3-1.9-2.7-3.7-4.3-5.3c-2-1.8-4.1-3.4-6.4-4.8l-7.2-4.7
		c-1.9-1.3-3.9-2.6-6-3.7c-5.2-2.7-11.1-3.8-16.9-4.9c-6,0-12-0.8-18.1-0.7c-1.1,0-2.2,0.1-3.2,0.4c-1.5,0.5-2.6-0.1-4.1,0.2
		c-1.1,0.5-2.1,1.2-3,2c2.1,0.6,3.7,2.5,4,4.6c0.2,1,0,2.1,0.1,3.2c0.3,2.5,2.4,4.5,4.7,5.8s4.7,2.2,6.7,3.7c0.6,0.4,1.1,1,1.4,1.6
		c0.4,1-0.1,2.2,0,3.4c0.3,2.6,3.3,3.7,5.8,4.4l5.7,1.5c1.2,3.9-2.2,8.5,0,11.9c0.6,1,1.7,1.8,1.9,3c0.3,1.7-1.3,3.1-2,4.7
		c-0.8,1.7-0.6,3.8,0.5,5.4c2,2.6,3.8,1.7,6.4,1.4c3.2-0.4,7,0.7,10,1.6c0.9,0.3,1.9,0.8,1.9,1.7c0,0.4-0.2,0.9-0.5,1.2
		c-0.8,1.2-1.8,2.4-2.8,3.4c0.7,1.5,3.1,0.9,4.2,2c0.4,0.5,0.7,1,1,1.6c1.7,2.5,6.1,0.7,8.5,2.6c0.8,0.7,1.3,1.6,1.7,2.5l3.4,7.4
		c0.3,0.5,0.4,1,0.3,1.6c-0.1,0.3-0.3,0.6-0.6,0.8c-3.8,3.7-10.4,4.8-12.2,9.8c-0.1,0.3-0.2,0.6-0.1,0.8c0.1,0.4,0.6,0.6,1,0.9
		c2.7,2-0.4,7.3,2.3,9.3c1.4,1,3.4,0.3,5.1,0.7c3.4,0.9,3.5,5.1,5.8,7.1c2.3,2,4.7-1.9,6.4-3.9c1.3-1.6,2.3-3.4,3.1-5.3
		c2-4.4,5.1-8.2,6.5-13c0.8-2.7,1-5.5,2-8.1c0.8-2.1,2-4.4,1.3-6.6c-0.7-0.1-1,0.8-1.4,1.4c-0.8,1.2-2.1,2-3.6,2.2
		c-3.4,0.6-6.9-0.1-9.7-2c-4.3-3.2,1-6.5,0.3-10.9c-0.3-1.7-1.3-3.3-1.9-4.9s-0.5-3.8,0.9-4.9c1.1-0.6,2.2-0.8,3.4-0.8
		c2.6-0.3,5.1-1,7.5-2.1c1.2-0.2,2-1.4,1.7-2.5c0,0,0,0,0,0c0-0.1,0-0.2-0.1-0.3l-0.1-2.2C599.9,192.1,599.6,190.7,599.2,189.3z"/>
</g>
<g>
	<rect x="114.4" y="526.7" class="st1" width="160.3" height="35.1"/>
	<path d="M275.4,562.5H113.6V526h161.8V562.5z M115.1,561h158.8v-33.6H115.1V561z"/>
</g>
<g>
	<circle class="st0" cx="95.7" cy="86.2" r="51"/>
</g>
<g>
	<defs>
		<circle id="SVGID_1_" cx="95.7" cy="86.2" r="51"/>
	</defs>
	<clipPath id="SVGID_00000044163277095847535410000005220719218527133856_">
		<use xlink:href="#SVGID_1_"  style="overflow:visible;"/>
	</clipPath>
	<g style="clip-path:url(#SVGID_00000044163277095847535410000005220719218527133856_);">
		<g>
			<path d="M56.2,161.4l-1.5-0.4c3.6-13.8,10.9-26.3,18-38.4c1.7-3,3.6-6.1,5.3-9.1c2.9-5.1,5.8-10.6,6.9-16.6
				c0.3-1.4,0.4-2.9,0.5-4.4C86,76.2,73.2,62.4,56.8,61.8l-0.3,0c-2-0.1-4.5-0.2-5.9-2l1.2-0.9c1,1.3,2.9,1.3,4.8,1.4l0.3,0
				c17.2,0.6,30.7,15.1,30,32.3c-0.1,1.5-0.2,3.1-0.5,4.6c-1.2,6.2-4.1,11.8-7.1,17c-1.7,3.1-3.5,6.1-5.3,9.1
				C67,135.4,59.7,147.8,56.2,161.4z"/>
		</g>
		<g>
			<path d="M110.1,170.7l0-0.3c-0.6-22.6-1.1-46-5-68.6c-4.3-25.5-12.3-47.1-23.8-64.2l1.2-0.8c11.5,17.3,19.6,39.1,24,64.8
				c3.9,22.7,4.4,46.2,5,68.9l0,0.3L110.1,170.7z"/>
		</g>
		<g>
			<path d="M40.5,107.2l-1-1.1C60,86.6,88.5,78.5,113.6,73c23.8-5.1,51.8-9.5,79.1-3.3l-0.3,1.5c-27-6.2-54.8-1.8-78.4,3.3
				C89,79.9,60.8,88,40.5,107.2z"/>
		</g>
		<g>
			<path d="M152.6,127.7c-3.9-9-9.5-16.9-16.8-23.5c-1.7-1.6-3.6-3.1-5.4-4.6c-3.8-3.1-7.8-6.3-10.9-10.3l-0.1-0.1
				c-11.6-14.9-8.9-36.4,6-48l0.9,1.2c-14.2,11.1-16.8,31.6-5.7,45.9l0.1,0.1c3,3.8,6.9,7,10.7,10.1c1.8,1.5,3.7,3,5.5,4.6
				c7.4,6.7,13.2,14.8,17.2,24L152.6,127.7z"/>
		</g>
	</g>
</g>
<g>
	<path d="M6.7,139.8c-2.7,0-4.4-0.7-5.2-2c-1.6-2.7,1.4-7.6,9.1-14.9c7-6.7,17.7-15.1,31-24.3l0.9,1.2C20.8,114.9,0.1,132.3,2.8,137
		c0.7,1.2,5,4.1,33-7.3c19.8-8,44.9-20.7,70.9-35.7c25.9-15,49.5-30.4,66.3-43.5c23.8-18.5,23.5-23.7,22.8-24.9
		c-0.6-1-3.6-2.9-18.7,2c-11,3.5-25.7,9.8-42.6,18.1l-0.7-1.3c13.6-6.7,58.3-27.9,63.2-19.5c2.3,4.1-5.5,13.1-23.2,26.9
		c-16.9,13.1-40.5,28.6-66.5,43.6c-26,15-51.2,27.7-71,35.8C22.3,136.9,12.4,139.8,6.7,139.8z"/>
</g>
<g>
	<polygon points="138.6,526.6 169.3,526.6 156.3,485 130.7,487.8 	"/>
</g>
<g>
	<rect x="79.1" y="526.7" width="35.3" height="35"/>
	<path d="M115.1,562.5H78.3v-36.5h36.8V562.5z M79.8,561h33.8v-33.5H79.8V561z"/>
</g>
<g>
	<path d="M97.6,209.2c-13.5,0-24.5-11-24.5-24.5s11-24.5,24.5-24.5s24.5,11,24.5,24.5S111.1,209.2,97.6,209.2z M97.6,161.7
		c-12.7,0-23,10.3-23,23s10.3,23,23,23s23-10.3,23-23S110.2,161.7,97.6,161.7z"/>
</g>
<g>
	<path d="M98.4,201.9c-3,0-6-1-8.5-2.8c-3.2-2.4-5.8-5.4-7.7-8.9l1.3-0.7c1.8,3.3,4.3,6.2,7.3,8.5c3,2.2,6.8,3,10.4,2.2l0.3,1.5
		C100.5,201.7,99.4,201.9,98.4,201.9z"/>
</g>
<g>
	<path d="M146.1,178.6c-8.7,0-15.7-7.1-15.7-15.7c0-8.7,7.1-15.7,15.7-15.7c8.7,0,15.7,7.1,15.7,15.7
		C161.9,171.5,154.8,178.6,146.1,178.6z M146.1,148.6c-7.9,0-14.2,6.4-14.2,14.2s6.4,14.2,14.2,14.2s14.2-6.4,14.2-14.2
		S154,148.6,146.1,148.6z"/>
</g>
<g>
	<path d="M146.7,174c-2,0-3.9-0.6-5.5-1.8c-2.1-1.5-3.7-3.5-5-5.7l1.3-0.7c1.1,2.1,2.7,3.8,4.5,5.3c1.8,1.3,4.1,1.8,6.3,1.3l0.3,1.5
		C148,173.9,147.3,174,146.7,174z"/>
</g>
<g>
	<path class="st0" d="M317,561.3h114.7c-1.1-16.4-9.2-31.5-22.2-41.6c25.1-20.7,28.6-57.7,7.9-82.8c0,0,0,0,0,0
		c-2-2.4-4.2-4.7-6.6-6.8c11.6-10,18.7-24.3,19.8-39.6H315.9c1,14.8,7.6,28.6,18.6,38.6c-25,20.7-28.5,57.8-7.7,82.8
		c3,3.6,6.4,6.9,10.2,9.7C325.3,531.6,318,545.9,317,561.3z"/>
</g>
<g>
	<polygon points="347,135.1 339.9,135.1 336.9,127.5 344,127.5 	"/>
</g>
<g>
	<polygon points="341.7,139.4 334.6,139.4 339.9,135.1 347,135.1 	"/>
</g>
<g>
	<polygon points="344,127.5 347,135.1 341.7,139.4 338.7,131.8 	"/>
</g>
<g>
	<polygon points="338.7,131.8 331.6,131.8 336.9,127.5 344,127.5 	"/>
</g>
<g>
	<polygon points="341.7,139.4 334.6,139.4 331.6,131.8 338.7,131.8 	"/>
</g>
<g>
	<polygon points="331.4,147.9 324.3,147.9 329.1,143.9 336.2,143.9 	"/>
</g>
<g>
	<path d="M317.7,62.8h6.4c-1.4,0.2-2.6,0.7-3.7,1.6h-7.1c1.1-0.9,2.3-1.4,3.7-1.6H317.7z"/>
</g>
<g>
	<defs>
		<path id="SVGID_00000160157386649787273290000005104348438602458527_" d="M317.7,62.8h6.4c-1.4,0.2-2.6,0.7-3.7,1.6h-7.1
			c1.1-0.9,2.3-1.4,3.7-1.6H317.7z"/>
	</defs>
	<clipPath id="SVGID_00000059297565283904343720000009725155146575284131_">
		<use xlink:href="#SVGID_00000160157386649787273290000005104348438602458527_"  style="overflow:visible;"/>
	</clipPath>
	<g style="clip-path:url(#SVGID_00000059297565283904343720000009725155146575284131_);">
		<g>
			<path d="M320.4,64.3h-7.1l0.6-0.5h7.1C320.8,64,320.6,64.2,320.4,64.3"/>
		</g>
		<g>
			<path d="M321,63.9h-7.1c0.6-0.4,1.2-0.7,1.8-0.9h7.1C322.2,63.2,321.6,63.5,321,63.9"/>
		</g>
		<g>
			<path d="M322.8,63h-7.1c0.4-0.1,0.8-0.2,1.3-0.3h7.1C323.6,62.8,323.2,62.9,322.8,63"/>
		</g>
	</g>
</g>
<g>
	<polygon points="336.2,143.9 329.1,143.9 312.6,104.1 319.7,104.1 	"/>
</g>
<g>
	<polygon points="328.9,139.7 321.8,139.6 311,113.3 318.1,113.3 	"/>
</g>
<g>
	<polygon points="311.9,118.4 304.8,118.4 311,113.3 318.1,113.3 	"/>
</g>
<g>
	<path d="M319.3,428h-7.1c-3.2,0-6.2-2.4-7.9-6.7h7.1C313.1,425.6,316.2,428,319.3,428z"/>
</g>
<g>
	<defs>
		<path id="SVGID_00000168094637539495059450000017907002531208476331_" d="M319.3,428h-7.1c-3.2,0-6.2-2.4-7.9-6.7h7.1
			C313.1,425.6,316.2,428,319.3,428z"/>
	</defs>
	<clipPath id="SVGID_00000182502981990863369360000011184035458803353750_">
		<use xlink:href="#SVGID_00000168094637539495059450000017907002531208476331_"  style="overflow:visible;"/>
	</clipPath>
	<g style="clip-path:url(#SVGID_00000182502981990863369360000011184035458803353750_);">
		<g>
			<path d="M319.3,428h-7.1c-3.2,0-6.2-2.4-7.9-6.7h7.1C313.1,425.6,316.2,428,319.3,428"/>
		</g>
	</g>
</g>
<g>
	<polygon points="309.6,112.5 302.5,112.5 312.6,104.1 319.7,104.1 	"/>
</g>
<g>
	<polygon points="311.9,118.4 304.8,118.4 302.5,112.5 309.6,112.5 	"/>
</g>
<g>
	<polygon points="309.2,166.2 302.1,166.2 306.2,162.8 313.3,162.8 	"/>
</g>
<g>
	<polygon points="328.9,139.7 321.8,139.6 300.6,129.9 307.7,129.9 	"/>
</g>
<g>
	<polygon points="331.4,147.9 324.3,147.9 297.7,135.7 304.8,135.7 	"/>
</g>
<g>
	<polygon points="306.8,106.4 299.7,106.4 297.4,100.5 304.5,100.5 	"/>
</g>
<g>
	<polygon points="299.3,112.6 292.2,112.6 299.7,106.4 306.8,106.4 	"/>
</g>
<g>
	<polygon points="307.7,129.9 300.6,129.9 292.2,112.6 299.3,112.6 	"/>
</g>
<g>
	<polygon points="304.8,135.7 297.7,135.7 285.4,110.4 292.5,110.4 	"/>
</g>
<g>
	<polygon points="292.5,110.4 285.4,110.4 297.4,100.5 304.5,100.5 	"/>
</g>
<g>
	<polygon points="313.3,162.8 306.2,162.8 280.5,114.4 287.6,114.4 	"/>
</g>
<g>
	<polygon points="309.2,166.2 302.1,166.2 279.3,123.2 286.4,123.2 	"/>
</g>
<g>
	<polygon points="289.3,164 282.2,164 277.8,124.5 284.9,124.5 	"/>
</g>
<g>
	<polygon points="284.9,124.5 277.8,124.5 279.3,123.2 286.4,123.2 	"/>
</g>
<g>
	<polygon points="284.7,167.8 277.6,167.8 282.2,164 289.3,164 	"/>
</g>
<g>
	<polygon points="283,149.7 275.9,149.7 272.6,120.9 279.7,120.9 	"/>
</g>
<g>
	<polygon points="279.7,120.9 272.6,120.9 280.5,114.4 287.6,114.4 	"/>
</g>
<g>
	<polygon points="283,149.7 275.9,149.7 266.5,125.9 273.5,125.9 	"/>
</g>
<g>
	<polygon points="269.5,129.3 262.4,129.3 266.5,125.9 273.5,125.9 	"/>
</g>
<g>
	<polygon points="287.6,114.4 313.3,162.8 309.2,166.2 286.4,123.2 284.9,124.5 289.3,164 284.7,167.8 269.5,129.3 273.5,125.9 
		283,149.7 279.7,120.9 	"/>
</g>
<g>
	<polygon points="284.7,167.8 277.6,167.8 262.4,129.3 269.5,129.3 	"/>
</g>
<g>
	<path class="st1" d="M431.2,325.1c2.4,6.3,0.9,14.2-3.5,17.7l-104,83.6c-1.1,0.9-2.4,1.4-3.7,1.6c-3.4,0.4-6.8-2-8.6-6.6L217,176.4
		l-4.2-10.8c-2.4-6.3-0.9-14.2,3.5-17.7l104-83.6c1.1-0.9,2.3-1.4,3.7-1.6c3.4-0.4,6.8,2,8.6,6.6L431.2,325.1z M309.2,166.1l4.1-3.4
		l-25.7-48.4l-7.9,6.5l3.3,28.9l-9.5-23.8l-4.1,3.4l15.3,38.4l4.7-3.9l-4.5-39.5l1.5-1.2L309.2,166.1 M331.4,147.9l4.8-4l-16.4-39.8
		l-10.2,8.4l2.4,5.9l6.1-5.1l10.9,26.3l-21.2-9.8l-8.4-17.3l7.5-6.2l-2.3-5.9l-12,9.9l12.3,25.3L331.4,147.9 M341.7,139.4l5.2-4.3
		l-3-7.6l-5.2,4.3L341.7,139.4"/>
	<path d="M319.3,428.8c-3.6,0-6.9-2.7-8.6-7.2l-98.6-255.7c-2.5-6.5-0.9-14.9,3.7-18.5l104-83.6c1.2-1,2.6-1.6,4.1-1.8
		c3.9-0.4,7.5,2.4,9.4,7.1l98.6,255.7c2.5,6.6,0.9,14.9-3.7,18.6l-104,83.6c-1.2,1-2.6,1.6-4.1,1.8
		C319.8,428.8,319.6,428.8,319.3,428.8z M324.7,63.5c-0.2,0-0.4,0-0.6,0c-1.2,0.2-2.3,0.6-3.3,1.4l-104,83.6
		c-4.1,3.3-5.6,10.9-3.3,16.8l98.6,255.7c1.6,4.1,4.6,6.5,7.8,6.2c1.2-0.1,2.4-0.6,3.3-1.4l104-83.6c4.1-3.3,5.6-10.9,3.3-16.8l0,0
		L331.9,69.7C330.4,65.8,327.7,63.5,324.7,63.5z M284.4,169.1l-15.8-39.9l5.3-4.4l7.7,19.5l-2.7-23.7l8.9-7.4l26.4,49.7l-4.6,3.8
		l-0.5-0.5l-0.7,0.4l-22.3-42.1l-0.5,0.4l4.5,39.5L284.4,169.1z M270.4,129.6l14.7,37l3.6-2.9l-4.5-39.5l2.5-2.1l22.7,42.9l2.9-2.4
		l-25-47l-6.9,5.7l3.9,34.1l-11.2-28.1L270.4,129.6z M331,148.6l-26.9-12.4l-12.7-26.1l13.3-10.9l2.9,7.4l-7.5,6.2l8.1,16.5
		l19.2,8.8l-9.8-23.6l-6.2,5.1l-2.9-7.4l11.4-9.4l17,41.3l-5.2,4.4l-0.5-0.6L331,148.6z M305.3,135.1l25.9,12l4.1-3.4l-15.8-38.4
		l-9,7.4l1.8,4.4l6.1-5.1l12,29.1l-23.2-10.7l-8.8-18.1l7.6-6.2l-1.8-4.4l-10.7,8.9L305.3,135.1z M342.2,140l-0.5-0.6l-0.7,0.3
		l-3.2-8.1l6.5-5.3l3.6,9L342.2,140z M339.6,132l2.4,6.1l4-3.3l-2.4-6.1L339.6,132z"/>
</g>
<g>
	<polygon points="304.5,100.5 306.8,106.4 299.3,112.6 307.7,129.9 328.9,139.7 318.1,113.3 311.9,118.4 309.6,112.5 319.7,104.1 
		336.2,143.9 331.4,147.9 304.8,135.7 292.5,110.4 	"/>
</g>
<g>
	<polygon points="311.5,421.4 304.4,421.4 209.9,176.4 217,176.4 	"/>
</g>
<g>
	<polygon points="216.3,147.9 209.2,147.9 313.3,64.3 320.4,64.3 	"/>
</g>
<g>
	<polygon points="217,176.4 209.9,176.4 205.8,165.6 212.8,165.6 	"/>
</g>
<g>
	<path d="M212.8,165.6h-7.1c-2.4-6.3-0.9-14.2,3.5-17.7h7.1C212,151.4,210.4,159.3,212.8,165.6z"/>
</g>
<g>
	<defs>
		<path id="SVGID_00000142161973014587611780000010799613913786813593_" d="M212.8,165.6h-7.1c-2.4-6.3-0.9-14.2,3.5-17.7h7.1
			C212,151.4,210.4,159.3,212.8,165.6z"/>
	</defs>
	<clipPath id="SVGID_00000051375060760712713190000010648354613387918250_">
		<use xlink:href="#SVGID_00000142161973014587611780000010799613913786813593_"  style="overflow:visible;"/>
	</clipPath>
	<g style="clip-path:url(#SVGID_00000051375060760712713190000010648354613387918250_);">
		<g>
			<path d="M212.8,165.6h-7.1c-0.2-0.5-0.4-1-0.5-1.6h7.1C212.5,164.6,212.6,165.1,212.8,165.6"/>
		</g>
		<g>
			<path d="M212.3,164.1h-7.1c-0.2-0.8-0.4-1.7-0.5-2.5h7.1C211.9,162.4,212.1,163.2,212.3,164.1"/>
		</g>
		<g>
			<path d="M211.8,161.5h-7.1c-0.1-0.8-0.1-1.5-0.1-2.3h7.1C211.7,160,211.7,160.8,211.8,161.5"/>
		</g>
		<g>
			<path d="M211.7,159.3h-7.1c0-0.8,0-1.6,0.1-2.3h7.1C211.8,157.7,211.7,158.5,211.7,159.3"/>
		</g>
		<g>
			<path d="M211.9,157h-7.1c0.1-0.9,0.3-1.8,0.6-2.7h7.1C212.2,155.2,212,156.1,211.9,157"/>
		</g>
		<g>
			<path d="M212.4,154.2h-7.1c0.6-2.5,2-4.7,3.9-6.3h7.1C214.4,149.6,213,151.8,212.4,154.2"/>
		</g>
	</g>
</g>
<g>
	<rect x="449.7" y="451.7" width="60.4" height="109.3"/>
</g>
<g>
	<rect x="469.6" y="452.5" class="st1" width="58.8" height="109.1"/>
</g>
<g>
	<path d="M527.6,453.2v107.6h-57.3V453.3L527.6,453.2 M529.2,451.7h-60.4v110.6h60.4L529.2,451.7z"/>
</g>
<g>
	<path class="st1" d="M482.7,466.5h16.7c0.4,0,0.8,0.4,0.8,0.8v16.7c0,0.4-0.4,0.8-0.8,0.8h-16.7c-0.4,0-0.8-0.4-0.8-0.8v-16.7
		C481.9,466.8,482.3,466.5,482.7,466.5z"/>
	<path d="M499.4,485.5h-16.7c-0.8,0-1.5-0.7-1.5-1.5v-16.7c0-0.8,0.7-1.5,1.5-1.5h16.7c0.8,0,1.5,0.7,1.5,1.5v16.7
		C500.9,484.8,500.2,485.5,499.4,485.5z M482.7,467.2C482.7,467.2,482.7,467.2,482.7,467.2l0,16.7l16.7,0l0-16.7L482.7,467.2z"/>
</g>
<g>
	<path class="st1" d="M482.7,499.3h16.7c0.4,0,0.8,0.4,0.8,0.8v16.7c0,0.4-0.4,0.8-0.8,0.8h-16.7c-0.4,0-0.8-0.4-0.8-0.8v-16.7
		C481.9,499.7,482.3,499.3,482.7,499.3z"/>
	<path d="M499.4,518.3h-16.7c-0.8,0-1.5-0.7-1.5-1.5v-16.7c0-0.8,0.7-1.5,1.5-1.5h16.7c0.8,0,1.5,0.7,1.5,1.5v16.7
		C500.9,517.6,500.2,518.3,499.4,518.3z M482.7,500.1C482.7,500.1,482.7,500.1,482.7,500.1l0,16.7l16.7,0l0-16.7L482.7,500.1z"/>
</g>
<g>
	<path class="st1" d="M482.7,532.2h16.7c0.4,0,0.8,0.4,0.8,0.8v16.7c0,0.4-0.4,0.8-0.8,0.8h-16.7c-0.4,0-0.8-0.4-0.8-0.8V533
		C481.9,532.5,482.3,532.2,482.7,532.2z"/>
	<path d="M499.4,551.2h-16.7c-0.8,0-1.5-0.7-1.5-1.5V533c0-0.8,0.7-1.5,1.5-1.5h16.7c0.8,0,1.5,0.7,1.5,1.5v16.7
		C500.9,550.5,500.2,551.2,499.4,551.2z M482.7,532.9C482.7,532.9,482.7,532.9,482.7,532.9l0,16.7l16.7,0l0-16.7L482.7,532.9z"/>
</g>
<g>
	<path class="st1" d="M511.2,466.5h16.7c0.4,0,0.8,0.4,0.8,0.8v16.7c0,0.4-0.4,0.8-0.8,0.8h-16.7c-0.4,0-0.8-0.4-0.8-0.8v-16.7
		C510.4,466.8,510.8,466.5,511.2,466.5z"/>
	<path d="M527.9,485.5h-16.7c-0.8,0-1.5-0.7-1.5-1.5v-16.7c0-0.8,0.7-1.5,1.5-1.5h16.7c0.8,0,1.5,0.7,1.5,1.5v16.7
		C529.4,484.8,528.7,485.5,527.9,485.5z M511.2,467.2C511.2,467.2,511.2,467.2,511.2,467.2l0,16.7l16.7,0l0-16.7L511.2,467.2z"/>
</g>
<g>
	<path class="st1" d="M511.2,499.3h16.7c0.4,0,0.8,0.4,0.8,0.8v16.7c0,0.4-0.4,0.8-0.8,0.8h-16.7c-0.4,0-0.8-0.4-0.8-0.8v-16.7
		C510.4,499.7,510.8,499.3,511.2,499.3z"/>
	<path d="M527.9,518.3h-16.7c-0.8,0-1.5-0.7-1.5-1.5v-16.7c0-0.8,0.7-1.5,1.5-1.5h16.7c0.8,0,1.5,0.7,1.5,1.5v16.7
		C529.4,517.6,528.7,518.3,527.9,518.3z M511.2,500.1C511.2,500.1,511.2,500.1,511.2,500.1l0,16.7l16.7,0l0-16.7L511.2,500.1z"/>
</g>
<g>
	<path class="st1" d="M511.2,532.2h16.7c0.4,0,0.8,0.4,0.8,0.8v16.7c0,0.4-0.4,0.8-0.8,0.8h-16.7c-0.4,0-0.8-0.4-0.8-0.8V533
		C510.4,532.5,510.8,532.2,511.2,532.2z"/>
	<path d="M527.9,551.2h-16.7c-0.8,0-1.5-0.7-1.5-1.5V533c0-0.8,0.7-1.5,1.5-1.5h16.7c0.8,0,1.5,0.7,1.5,1.5v16.7
		C529.4,550.5,528.7,551.2,527.9,551.2z M511.2,532.9C511.2,532.9,511.2,532.9,511.2,532.9l0,16.7l16.7,0l0-16.7L511.2,532.9z"/>
</g>
<g>
	<rect x="519.9" y="381" class="st1" width="83.6" height="180.7"/>
	<path d="M604.3,562.4h-85.1V380.2h85.1V562.4z M520.7,560.9h82.1V381.7h-82.1V560.9z"/>
</g>
<g>
	<rect x="539.1" y="403" class="st1" width="64.4" height="158.7"/>
	<path d="M604.3,562.4h-65.9V402.2h65.9V562.4z M539.9,560.9h62.9V403.7h-62.9V560.9z"/>
</g>
<g>
	<rect x="577.7" y="392.5" transform="matrix(0.707 -0.7072 0.7072 0.707 -133.4365 534.6036)" width="1.5" height="71.7"/>
</g>
<g>
	<rect x="570.6" y="411.7" transform="matrix(0.7182 -0.6958 0.6958 0.7182 -157.655 526.5878)" width="1.5" height="92.6"/>
</g>
</svg>
